<?xml version="1.0" encoding="UTF-8" standalone="no"?><!DOCTYPE svg PUBLIC "-//W3C//DTD SVG 1.1//EN" "http://www.w3.org/Graphics/SVG/1.1/DTD/svg11.dtd"><svg width="100%" height="100%" viewBox="0 0 323 217" version="1.1" xmlns="http://www.w3.org/2000/svg" xmlns:xlink="http://www.w3.org/1999/xlink" xml:space="preserve" xmlns:serif="http://www.serif.com/" style="fill-rule:evenodd;clip-rule:evenodd;stroke-linejoin:round;stroke-miterlimit:2;"><path d="M259.369,96.292l0.018,-0.05c6.025,3.091 7.794,2.283 1.699,-5.849c0.269,-1.228 0.489,-2.47 0.668,-3.725c2.759,3.415 2.814,1.085 0.557,-6.187c1.403,-32.235 -20.655,-41.85 -32.956,-67.655c2.65,1.396 4.171,1.647 6.369,3.653c-7.337,-11.785 -20.075,-17.297 -32.461,-16.379c10.589,0.795 20.829,6.289 27.11,16.378c-2.198,-2.006 -3.719,-2.257 -6.369,-3.653c12.301,25.806 34.359,35.42 32.956,67.655c2.257,7.272 2.202,9.602 -0.557,6.187c-0.177,1.249 -0.399,2.492 -0.668,3.725c2.078,2.772 3.241,4.693 3.634,5.899l0,0.001Zm-128.214,-73.083l0.098,0.002l0.634,-0l-0.732,-0.002Zm122.888,98.949c-1.349,-6.566 -1.704,-14.208 -1.087,-20.192c2.733,0.295 3.687,-0.627 0.493,-4.22c0.206,-0.5 0.402,-1 0.587,-1.504c2.339,1.2 4.036,1.812 4.88,1.636c3.053,3.484 2.09,4.379 -0.609,4.088c-0.789,7.65 0.011,18.011 2.445,25.368c-1.242,0.501 -3.696,-1.806 -6.709,-5.176Z" style="fill:#007b85;"/><path d="M243.47,97.746c0.207,-0.5 0.402,-1 0.588,-1.504c6.024,3.091 7.793,2.283 1.698,-5.849c0.269,-1.228 0.49,-2.47 0.668,-3.725c2.759,3.415 2.815,1.085 0.557,-6.187c1.403,-32.235 -20.655,-41.85 -32.955,-67.655c2.65,1.396 4.171,1.647 6.369,3.653c-12.972,-20.834 -42.824,-22.072 -57.767,-2.808c-15.781,2.594 -30.894,3.115 -46.834,6.65c-1.715,0.381 -1.694,2.891 0.13,2.89c9.492,-0.005 43.884,-0.305 51.244,5.304c0.663,0.505 0.926,1.62 0.681,2.26c-0.843,2.196 -2.316,4.121 -2.699,6.321c-5.274,30.32 25.19,65.49 56.001,66.908c8.212,4.739 20.845,24.712 24.272,23.33c-2.434,-7.357 -3.234,-17.718 -2.446,-25.368c2.733,0.295 3.688,-0.627 0.493,-4.22Z" style="fill:#21b188;"/><path d="M289.427,161.592l0,8.396c0,2.747 0.046,4.502 0.139,5.241c0.092,0.669 0.3,1.226 0.646,1.686c0.403,0.539 1.084,0.895 2.052,1.069c0.416,0.061 1.5,0.165 3.287,0.304c0.358,0.035 0.531,0.27 0.531,0.713c0,0.426 -0.219,0.635 -0.669,0.635c-4.256,-0.14 -7.554,-0.2 -9.895,-0.2c-2.399,-0 -5.582,0.06 -9.572,0.2c-0.45,-0 -0.669,-0.209 -0.669,-0.635c0,-0.443 0.219,-0.678 0.669,-0.713c1.718,-0.139 2.802,-0.269 3.252,-0.382c0.715,-0.191 1.222,-0.521 1.511,-1c0.565,-0.756 0.853,-3.068 0.853,-6.918l0,-18.869c0,-2.738 -0.035,-4.407 -0.104,-5.015c-0.061,-0.636 -0.27,-1.249 -0.611,-1.79c-0.312,-0.47 -1.038,-0.8 -2.157,-0.991c-0.449,-0.07 -1.603,-0.165 -3.448,-0.305c-0.404,-0.034 -0.611,-0.269 -0.611,-0.712c0,-0.461 0.207,-0.687 0.611,-0.687c3.195,0.104 6.493,0.156 9.895,0.156l11.418,-0.199c6.896,-0 11.959,1.06 15.177,3.181c2.479,1.642 3.713,3.841 3.713,6.57c0,2.243 -1.049,4.207 -3.137,5.885c-2.029,1.599 -4.832,2.746 -8.418,3.441c3.471,4.729 6.792,9.04 9.964,12.925c1.741,2.138 3.102,3.441 4.094,3.919c0.761,0.357 2.168,0.618 4.221,0.791c0.357,0.035 0.542,0.253 0.542,0.661c0,0.461 -0.185,0.687 -0.542,0.687c-3.875,-0.14 -6.32,-0.2 -7.335,-0.2c-2.629,-0 -4.763,0.008 -6.378,0.043c-0.634,-1.338 -1.464,-2.694 -2.502,-4.067c-6.02,-8.327 -9.33,-12.916 -9.93,-13.768c-0.473,0.035 -1.245,0.052 -2.306,0.052c-1.707,-0 -3.137,-0.034 -4.291,-0.104Zm-0,-1.773c1.361,0.139 2.849,0.209 4.498,0.209c4.682,0 8.108,-0.922 10.276,-2.755c1.638,-1.417 2.456,-3.295 2.456,-5.641c-0,-5.528 -3.828,-8.292 -11.486,-8.292c-2.699,0 -4.36,0.33 -4.959,0.991c-0.52,0.634 -0.785,2.208 -0.785,4.737l-0,10.751Zm-81.767,19.799c-6.058,-0.122 -12.117,-0.183 -18.176,-0.183c-6.435,-0 -12.744,0.053 -18.914,0.157c-0.415,-0 -0.611,-0.208 -0.611,-0.634c-0,-0.409 0.196,-0.635 0.611,-0.661c1.638,-0.139 2.687,-0.27 3.137,-0.382c0.634,-0.192 1.107,-0.522 1.419,-1c0.611,-0.808 0.911,-3.12 0.911,-6.918l-0,-18.921c-0,-2.651 -0.058,-4.329 -0.162,-5.042c-0.088,-0.646 -0.32,-1.264 -0.68,-1.807c-0.312,-0.461 -0.934,-0.774 -1.857,-0.948c-0.45,-0.087 -1.522,-0.182 -3.206,-0.304c-0.415,-0.035 -0.611,-0.252 -0.611,-0.66c-0,-0.496 0.196,-0.739 0.611,-0.739c5.443,0.139 11.567,0.199 18.372,0.199c6.47,-0 12.397,-0.06 17.772,-0.199c0.346,3.277 0.784,6.223 1.326,8.856l-0,0.122c-0,0.261 -0.265,0.417 -0.784,0.487c-0.111,0.017 -0.223,0.026 -0.335,0.026c-0.449,-0 -0.738,-0.13 -0.841,-0.382c-1.2,-2.391 -2.768,-4.173 -4.706,-5.346c-1.845,-1.26 -5.305,-1.886 -10.368,-1.886c-3.021,-0 -4.855,0.435 -5.512,1.295c-0.473,0.617 -0.704,2.043 -0.704,4.285l-0,9.647c0.738,0.035 2.041,0.053 3.887,0.053c4.509,-0 7.404,-0.383 8.718,-1.148c1.303,-0.73 2.203,-1.912 2.699,-3.554c0.069,-0.305 0.404,-0.461 1.015,-0.461c0.565,-0 0.842,0.174 0.842,0.513c-0.093,2.425 -0.127,4.25 -0.127,5.493c-0,1.607 0.034,3.624 0.127,6.031c-0,0.392 -0.277,0.583 -0.842,0.583c-0.542,-0 -0.877,-0.165 -1.015,-0.504c-0.611,-1.912 -1.534,-3.216 -2.768,-3.911c-1.753,-0.826 -4.636,-1.243 -8.649,-1.243c-1.296,-0.004 -2.591,0.005 -3.887,0.026l-0,9.447c-0,3.46 0.323,5.563 0.98,6.31c0.519,0.661 1.453,1.104 2.803,1.321c0.83,0.122 2.122,0.183 3.851,0.183c5.294,-0 9.262,-0.834 11.891,-2.503c1.81,-1.121 3.656,-2.886 5.547,-5.302c0.173,-0.287 0.404,-0.435 0.669,-0.435c0.115,-0 0.265,0.018 0.45,0.053c0.53,0.139 0.807,0.304 0.807,0.513c-0,0.034 -0.011,0.104 -0.034,0.226c-0.923,3.302 -2.146,6.388 -3.656,9.247Zm-70.569,-17.296l-0,7.666c-0,3.016 0.023,4.772 0.069,5.267c0.069,0.695 0.242,1.252 0.542,1.651c0.358,0.531 1.084,0.878 2.191,1.052c0.473,0.078 1.626,0.191 3.448,0.33c0.358,0.035 0.543,0.253 0.543,0.661c-0,0.461 -0.208,0.687 -0.612,0.687c-3.31,-0.105 -6.689,-0.157 -10.137,-0.157c-3.645,-0 -6.943,0.052 -9.895,0.157c-0.369,-0 -0.542,-0.226 -0.542,-0.687c-0,-0.443 0.196,-0.661 0.6,-0.661c1.672,-0.104 2.756,-0.225 3.252,-0.356c0.715,-0.191 1.245,-0.53 1.58,-1.026c0.518,-0.756 0.784,-3.068 0.784,-6.918l-0,-18.869c-0,-2.738 -0.035,-4.407 -0.104,-5.015c-0.069,-0.669 -0.254,-1.26 -0.577,-1.79c-0.357,-0.47 -1.107,-0.8 -2.26,-0.991c-0.404,-0.07 -1.511,-0.165 -3.31,-0.305c-0.403,-0.034 -0.611,-0.269 -0.611,-0.712c-0,-0.461 0.208,-0.687 0.611,-0.687c3.068,0.104 6.504,0.156 10.333,0.156l11.36,-0.199c12.975,-0 19.456,3.346 19.456,10.056c-0,7.266 -7.196,10.899 -21.589,10.899c-1.938,-0 -3.645,-0.07 -5.132,-0.209Zm-0,-1.929c1.372,0.208 2.848,0.313 4.428,0.313c4.994,-0 8.627,-0.974 10.876,-2.912c1.707,-1.46 2.571,-3.433 2.571,-5.91c-0,-2.973 -1.199,-5.198 -3.586,-6.658c-2.053,-1.26 -4.856,-1.886 -8.408,-1.886c-2.664,-0 -4.313,0.365 -4.97,1.095c-0.611,0.678 -0.911,2.903 -0.911,6.675l-0,9.283Zm-24.3,-17.931c-0,0.8 0.242,3.738 0.715,8.831c-0,0.286 -0.242,0.46 -0.715,0.53c-0.15,0.017 -0.289,0.026 -0.404,0.026c-0.288,-0 -0.496,-0.122 -0.599,-0.356c-3.091,-5.502 -7.266,-8.249 -12.537,-8.249c-2.572,-0 -4.647,0.67 -6.216,2.008c-1.407,1.208 -2.099,2.729 -2.099,4.563c-0,2.564 2.583,4.789 7.739,6.666l3.713,1.356c5.432,1.999 8.996,3.824 10.714,5.476c1.707,1.625 2.561,3.85 2.561,6.666c-0,3.79 -1.846,6.675 -5.536,8.657c-3.218,1.747 -7.531,2.625 -12.94,2.625c-4.325,-0 -8.754,-0.609 -13.274,-1.834c-1.061,-2.981 -1.869,-5.893 -2.4,-8.726c-0.019,-0.074 -0.031,-0.15 -0.034,-0.226c-0,-0.339 0.254,-0.539 0.773,-0.609c0.184,-0.017 0.323,-0.026 0.438,-0.026c0.38,-0 0.635,0.122 0.75,0.357c1.753,2.963 3.979,5.301 6.689,7.005c2.514,1.591 5.132,2.39 7.83,2.39c3.161,-0 5.686,-0.799 7.578,-2.39c1.637,-1.373 2.456,-3.077 2.456,-5.119c-0,-2.017 -0.923,-3.712 -2.768,-5.085c-1.441,-1.086 -3.886,-2.303 -7.335,-3.641l-3.436,-1.348c-4.44,-1.677 -7.427,-3.363 -8.961,-5.041c-1.396,-1.538 -2.088,-3.546 -2.088,-6.006c-0,-2.894 1.603,-5.24 4.832,-7.022c2.86,-1.573 6.413,-2.364 10.668,-2.364c2.076,-0 4.406,0.234 7.001,0.712c1.164,0.218 2.445,0.331 3.817,0.331c0.992,-0 2.018,-0.053 3.068,-0.157Zm-53.455,23.562c-3.102,-0.13 -5.743,-0.199 -7.9,-0.199c-1.787,-0 -4.647,0.069 -8.58,0.199l-2.641,5.485c-0.761,1.608 -1.142,2.955 -1.142,4.024c-0,0.643 0.139,1.252 0.438,1.808c0.473,0.852 2.26,1.408 5.363,1.686c0.415,-0 0.611,0.217 0.611,0.66c-0,0.461 -0.253,0.687 -0.772,0.687c-1.696,-0.069 -4.567,-0.104 -8.615,-0.104c-3.333,-0 -5.755,0.035 -7.266,0.104c-0.519,-0 -0.784,-0.226 -0.784,-0.687c-0,-0.443 0.265,-0.66 0.784,-0.66c1.395,-0.173 2.745,-0.713 4.048,-1.634c1.338,-0.982 2.745,-3.007 4.233,-6.084l8.303,-16.905c2.076,-4.206 3.748,-7.857 5.006,-10.942l5.443,-1.886c0.496,-0 0.796,0.165 0.91,0.486c0.335,0.774 2.25,4.998 5.745,12.647l7.796,17.009c1.406,3.102 2.56,5.084 3.483,5.936c0.588,0.556 1.199,0.912 1.822,1.069c0.473,0.113 1.36,0.217 2.64,0.304c0.612,-0 0.912,0.217 0.912,0.66c-0,0.461 -0.3,0.687 -0.911,0.687c-4.106,-0.069 -7.37,-0.104 -9.803,-0.104c-2.387,-0 -5.64,0.035 -9.757,0.104c-0.369,-0 -0.542,-0.226 -0.542,-0.687c-0,-0.443 0.173,-0.66 0.542,-0.66c2.883,-0.122 4.475,-0.583 4.798,-1.382c0.131,-0.314 0.197,-0.651 0.196,-0.991c-0,-0.886 -0.485,-2.381 -1.453,-4.485l-2.907,-6.145Zm-8.038,-18.034l-3.102,6.719l-4.43,9.239c1.512,0.069 4.06,0.104 7.67,0.104c3.287,0 5.594,-0.035 6.92,-0.104l-4.152,-9.135c-0.738,-1.599 -1.707,-3.868 -2.906,-6.823Zm-25.684,-4.525c-1.776,0.195 -2.917,0.378 -3.413,0.536c-0.715,0.268 -1.234,0.719 -1.546,1.365c-0.611,1.097 -0.922,4.267 -0.922,9.532l-0,16.394l0.069,16.504c-0,5.924 -1.938,11.47 -5.813,16.614c-4.094,5.35 -7.704,8.032 -10.806,8.032c-2.122,0 -3.183,-0.732 -3.183,-2.182c-0,-1.548 0.6,-3.011 1.8,-4.364c0.991,-1.145 2.006,-1.718 3.032,-1.718c0.612,0 1.292,0.243 2.03,0.755c0.819,0.464 1.5,0.707 2.065,0.707c0.876,0 1.545,-0.853 1.995,-2.572c0.565,-2.669 0.841,-8.044 0.841,-16.137l-0,-32.033c-0,-3.888 -0.034,-6.253 -0.103,-7.106c-0.092,-0.902 -0.312,-1.719 -0.67,-2.426c-0.368,-0.694 -1.026,-1.17 -1.994,-1.438c-0.542,-0.134 -1.615,-0.293 -3.218,-0.463c-0.403,-0.049 -0.6,-0.354 -0.6,-0.926c-0,-0.647 0.197,-0.963 0.6,-0.963c6.112,0.146 9.41,0.219 9.907,0.219c0.646,0 3.967,-0.073 9.93,-0.219c0.322,0 0.472,0.316 0.472,0.963c-0,0.572 -0.15,0.877 -0.473,0.926Zm237.202,-1.767l0.594,-0.018l4.463,-0.104c0.565,-0 0.842,0.226 0.842,0.686c-0,0.444 -0.254,0.678 -0.773,0.713c-1.891,0.156 -3.079,0.295 -3.564,0.417c-0.484,0.13 -0.888,0.409 -1.199,0.835c-0.658,0.808 -0.98,3.094 -0.98,6.849l-0,18.912c-0,2.773 0.057,4.52 0.161,5.25c0.092,0.678 0.346,1.277 0.75,1.808c0.38,0.495 1.072,0.825 2.064,0.99c0.473,0.087 1.58,0.192 3.345,0.304c0.311,0.035 0.473,0.261 0.473,0.67c-0,0.391 -0.208,0.582 -0.612,0.582c-0.807,-0.017 -1.96,-0.035 -3.448,-0.052l-1.854,-0.04c0.116,-0.092 0.175,-0.255 0.175,-0.49c-0,-0.409 -0.127,-0.635 -0.372,-0.67c-1.39,-0.112 -2.262,-0.217 -2.634,-0.304c-0.781,-0.165 -1.326,-0.495 -1.626,-0.99c-0.326,-0.552 -0.528,-1.17 -0.59,-1.808c-0.082,-0.73 -0.127,-2.477 -0.127,-5.25l-0,-18.912c-0,-3.755 0.254,-6.041 0.772,-6.849c0.245,-0.426 0.563,-0.705 0.944,-0.835c0.382,-0.122 1.317,-0.261 2.807,-0.417c0.408,-0.035 0.608,-0.269 0.608,-0.713c-0,-0.265 -0.072,-0.453 -0.219,-0.564Zm-41.739,37.769c-1.77,0.025 -3.54,0.067 -5.309,0.125c-0.312,-0 -0.474,-0.191 -0.474,-0.582c-0,-0.409 0.162,-0.635 0.474,-0.67c1.856,-0.13 2.975,-0.252 3.378,-0.356c0.704,-0.165 1.211,-0.478 1.523,-0.938c0.473,-0.574 0.761,-1.539 0.842,-2.877c0.046,-0.609 0.069,-2 0.069,-4.172l-0,-18.921c-0,-2.669 -0.058,-4.346 -0.162,-5.042c-0.091,-0.656 -0.349,-1.279 -0.749,-1.807c-0.288,-0.461 -0.911,-0.774 -1.857,-0.948c-0.473,-0.087 -1.568,-0.182 -3.275,-0.304c-0.358,-0.035 -0.542,-0.252 -0.542,-0.66c-0,-0.496 0.184,-0.739 0.542,-0.739c0.492,-0 2.269,0.043 5.342,0.128c-0.097,0.12 -0.146,0.322 -0.146,0.611c-0,0.408 0.146,0.625 0.427,0.66c1.344,0.122 2.207,0.217 2.579,0.304c0.745,0.174 1.236,0.487 1.462,0.948c0.318,0.538 0.518,1.147 0.59,1.807c0.082,0.696 0.128,2.373 0.128,5.042l-0,18.921c-0,2.172 -0.018,3.563 -0.055,4.172c-0.063,1.338 -0.29,2.303 -0.663,2.877c-0.245,0.46 -0.644,0.773 -1.198,0.938c-0.318,0.104 -1.199,0.226 -2.661,0.356c-0.245,0.035 -0.373,0.261 -0.373,0.67c-0,0.209 0.037,0.361 0.108,0.457Z" style="fill:#007b85;"/><path d="M234.241,160.819l0,12.68c0,1.826 0.123,2.999 0.363,3.547c0.24,0.495 0.698,0.825 1.366,0.99c0.298,0.07 0.996,0.174 2.107,0.304c0.254,0.035 0.378,0.244 0.378,0.618c0,0.426 -0.138,0.634 -0.422,0.634c-0.457,-0.017 -1.162,-0.035 -2.128,-0.052c-1.962,-0.07 -3.386,-0.105 -4.279,-0.105c-2.114,-0 -4.164,0.053 -6.154,0.157c-0.196,-0 -0.298,-0.191 -0.298,-0.582c0,-0.409 0.102,-0.635 0.298,-0.67c1.17,-0.13 1.874,-0.252 2.128,-0.356c0.444,-0.165 0.764,-0.478 0.96,-0.938c0.298,-0.574 0.479,-1.539 0.53,-2.877c0.029,-0.609 0.044,-2 0.044,-4.172l0,-18.921c0,-2.669 -0.037,-4.346 -0.102,-5.042c-0.049,-0.625 -0.209,-1.237 -0.472,-1.807c-0.182,-0.461 -0.574,-0.774 -1.17,-0.948c-0.298,-0.087 -0.988,-0.182 -2.064,-0.304c-0.225,-0.035 -0.341,-0.252 -0.341,-0.66c0,-0.496 0.116,-0.739 0.341,-0.739c0.313,-0 1.446,0.043 3.408,0.13c1.221,0.052 2.18,0.069 2.892,0.069c0.792,-0 1.896,-0.026 3.298,-0.095c1.475,-0.052 2.405,-0.087 2.79,-0.104c0.356,-0 0.53,0.243 0.53,0.739c0,0.391 -0.138,0.608 -0.421,0.66c-1.155,0.156 -1.853,0.269 -2.107,0.356c-0.473,0.174 -0.821,0.47 -1.046,0.887c-0.284,0.73 -0.429,3.016 -0.429,6.849l0,7.405c1.86,0.104 4.461,0.156 7.796,0.156c3.218,-0 5.746,-0.052 7.577,-0.156l0,-7.405c0,-2.747 -0.022,-4.433 -0.065,-5.067c-0.044,-0.678 -0.167,-1.269 -0.363,-1.782c-0.211,-0.469 -0.64,-0.791 -1.279,-0.965c-0.225,-0.052 -0.923,-0.139 -2.085,-0.278c-0.226,-0.035 -0.341,-0.252 -0.341,-0.66c0,-0.496 0.13,-0.739 0.384,-0.739c0.313,-0 1.461,0.043 3.451,0.13c1.235,0.052 2.224,0.069 2.979,0.069c0.734,-0 1.802,-0.026 3.19,-0.095l2.811,-0.104c0.356,-0 0.531,0.226 0.531,0.686c0,0.444 -0.16,0.678 -0.487,0.713c-1.192,0.156 -1.94,0.295 -2.245,0.417c-0.305,0.13 -0.56,0.409 -0.756,0.835c-0.414,0.808 -0.617,3.094 -0.617,6.849l0,18.912c0,2.773 0.036,4.52 0.102,5.25c0.057,0.678 0.217,1.277 0.471,1.808c0.24,0.495 0.676,0.825 1.301,0.99c0.298,0.087 0.996,0.192 2.107,0.304c0.196,0.035 0.298,0.261 0.298,0.67c0,0.391 -0.131,0.582 -0.385,0.582c-0.509,-0.017 -1.235,-0.035 -2.172,-0.052c-1.955,-0.07 -3.35,-0.105 -4.171,-0.105c-0.101,-0 -2.165,0.053 -6.197,0.157c-0.254,-0 -0.378,-0.191 -0.378,-0.582c0,-0.409 0.124,-0.635 0.378,-0.67c1.126,-0.13 1.816,-0.252 2.085,-0.356c0.414,-0.165 0.719,-0.478 0.916,-0.938c0.356,-0.818 0.537,-3.173 0.537,-7.058l0,-9.169c-1.831,-0.14 -4.359,-0.2 -7.577,-0.2c-3.335,-0 -5.936,0.06 -7.796,0.2Z" style="fill:#21b188;"/></svg>